<svg width="203" height="153" viewBox="0 0 203 153" fill="none" xmlns="http://www.w3.org/2000/svg">
<g filter="url(#filter0_d)">
<path d="M135.627 65.1768C135.209 66.5853 134.686 67.9937 134.164 69.2979C133.172 71.5931 132.022 73.8362 130.769 75.9229C127.06 81.7132 122.306 86.4081 116.769 89.6424C116.195 89.9554 115.725 90.3727 115.307 90.8943C114.889 91.416 114.628 92.042 114.419 92.7723C114.262 93.4504 114.21 94.1808 114.262 94.8589C114.367 95.5892 114.523 96.2674 114.837 96.8412L118.075 103.049L129.411 124.698C129.776 125.428 129.985 126.315 129.985 127.149C129.985 128.036 129.776 128.871 129.411 129.601L125.127 139.095C124.709 139.982 124.083 140.712 123.351 141.234C122.62 141.756 121.732 142.016 120.896 141.964H115.881C115.046 141.964 114.262 141.756 113.531 141.286C112.8 140.817 112.173 140.191 111.755 139.356L77.2791 74.0449L76.4433 72.4799H96.8676C97.181 72.4278 97.5467 72.4278 97.8601 72.4799H100.002C108.568 71.5931 119.956 56.2043 116.508 42.9543C115.202 38.6246 113.061 34.7644 110.188 31.7388C107.315 28.661 103.815 26.4701 100.054 25.3746C99.5839 25.2703 99.0615 25.2703 98.5914 25.3224H41.1841C40.3483 25.3746 39.4603 25.1138 38.729 24.5921C37.9977 24.0705 37.4231 23.288 37.0052 22.4012C36.6396 21.5143 36.4829 20.471 36.5873 19.4799C36.6918 18.4888 37.0574 17.5498 37.5798 16.7673L47.818 4.19544C48.2882 3.67379 48.8105 3.2043 49.3851 2.89131C49.9597 2.57831 50.5866 2.42182 51.2656 2.42182C59.101 2.21316 86.8383 1.58717 97.9645 2.42182C110.815 3.46512 118.754 8.73383 127.53 17.6019C136.306 26.4701 141.007 47.8579 135.627 65.1768Z" stroke="white" stroke-width="4"/>
<path d="M67.8564 118.792C67.8564 119.264 67.7524 119.683 67.5965 120.102L58.7079 139.759C58.448 140.23 58.0841 140.597 57.6683 140.859C57.2524 141.121 56.7846 141.226 56.3168 141.226C55.849 141.226 55.3811 141.069 54.9653 140.859C54.5495 140.597 54.1856 140.23 53.9257 139.759L6.2599 36.0267C6.10396 35.6074 6 35.0832 6 34.5591C6 34.0349 6.15594 33.5632 6.41584 33.0914C6.67574 32.6721 6.98762 32.3052 7.35148 32.0955C7.76732 31.8858 8.18317 31.781 8.59901 31.781H27C27.4678 31.781 27.9356 31.9383 28.3515 32.2003C28.7673 32.4624 29.1312 32.8817 29.3391 33.4059L67.4925 117.482C67.7524 117.901 67.8564 118.32 67.8564 118.792Z" stroke="#987900" stroke-width="3"/>
<path d="M196.603 34.39L152.847 140.989C152.636 141.512 152.268 141.931 151.847 142.245C151.427 142.558 150.953 142.715 150.48 142.715C150.007 142.715 149.533 142.611 149.06 142.349C148.639 142.088 148.271 141.669 148.008 141.198L138.174 121.898C138.016 121.479 137.911 121.061 137.911 120.59C137.911 120.119 138.016 119.701 138.174 119.282L173.147 32.9255C173.357 32.4024 173.673 31.984 174.094 31.6701C174.514 31.3563 174.988 31.1994 175.461 31.1994L193.921 30.3102C194.341 30.2579 194.815 30.3102 195.235 30.5717C195.656 30.7809 195.972 31.0948 196.235 31.5132C196.497 31.9317 196.655 32.4024 196.708 32.9255C196.866 33.3962 196.76 33.9193 196.603 34.39Z" stroke="#987900" stroke-width="3"/>
</g>
<defs>
<filter id="filter0_d" x="0.5" y="0.000213623" width="201.786" height="152.215" filterUnits="userSpaceOnUse" color-interpolation-filters="sRGB">
<feFlood flood-opacity="0" result="BackgroundImageFix"/>
<feColorMatrix in="SourceAlpha" type="matrix" values="0 0 0 0 0 0 0 0 0 0 0 0 0 0 0 0 0 0 127 0" result="hardAlpha"/>
<feOffset dy="4"/>
<feGaussianBlur stdDeviation="2"/>
<feComposite in2="hardAlpha" operator="out"/>
<feColorMatrix type="matrix" values="0 0 0 0 0 0 0 0 0 0 0 0 0 0 0 0 0 0 0.25 0"/>
<feBlend mode="normal" in2="BackgroundImageFix" result="effect1_dropShadow"/>
<feBlend mode="normal" in="SourceGraphic" in2="effect1_dropShadow" result="shape"/>
</filter>
</defs>
</svg>
