<svg width="54" height="36" viewBox="0 0 54 36" fill="none" xmlns="http://www.w3.org/2000/svg">
<path d="M36.3528 16.4845C36.2388 16.8297 36.0963 17.1749 35.9539 17.4946C35.6832 18.0571 35.3698 18.6069 35.0279 19.1183C34.0164 20.5376 32.72 21.6883 31.2099 22.481C31.0532 22.5577 30.925 22.66 30.811 22.7878C30.697 22.9157 30.6258 23.0691 30.5688 23.2481C30.5261 23.4143 30.5118 23.5933 30.5261 23.7595C30.5546 23.9385 30.5973 24.1047 30.6828 24.2454L31.566 25.7669L34.6575 31.0729C34.7572 31.2519 34.8142 31.4693 34.8142 31.6738C34.8142 31.8912 34.7572 32.0958 34.6575 32.2748L33.4893 34.6018C33.3753 34.8191 33.2044 34.9981 33.0049 35.126C32.8055 35.2538 32.5633 35.3177 32.3353 35.305H30.9677C30.7398 35.305 30.5261 35.2538 30.3266 35.1387C30.1272 35.0237 29.9562 34.8703 29.8423 34.6657L20.4398 18.6581L20.2119 18.2745H25.7821C25.8676 18.2617 25.9673 18.2617 26.0528 18.2745H26.6369C28.9732 18.0571 32.0789 14.2854 31.1387 11.0378C30.7825 9.97662 30.1984 9.03048 29.4149 8.28891C28.6313 7.53456 27.6768 6.99756 26.6511 6.72907C26.5229 6.7035 26.3804 6.7035 26.2522 6.71628H10.5957C10.3678 6.72907 10.1256 6.66514 9.92613 6.53728C9.72669 6.40943 9.56998 6.21764 9.45601 6.00028C9.35629 5.78293 9.31355 5.52722 9.34204 5.28429C9.37053 5.04136 9.47025 4.81122 9.61272 4.61944L12.405 1.5381C12.5332 1.41024 12.6756 1.29517 12.8323 1.21846C12.9891 1.14174 13.16 1.10339 13.3452 1.10339C15.4821 1.05224 23.0468 0.898816 26.0813 1.10339C29.5858 1.3591 31.7513 2.65045 34.1446 4.82401C36.538 6.99756 37.8201 12.2397 36.3528 16.4845Z" fill="#F9F9F9" stroke="white"/>
<path d="M17.8699 29.6255C17.8699 29.7411 17.8416 29.8439 17.799 29.9467L15.3749 34.7644C15.304 34.88 15.2048 34.9699 15.0913 35.0341C14.9779 35.0984 14.8503 35.1241 14.7228 35.1241C14.5952 35.1241 14.4676 35.0855 14.3542 35.0341C14.2408 34.9699 14.1415 34.88 14.0706 34.7644L1.07088 9.33987C1.02835 9.2371 1 9.10862 1 8.98015C1 8.85168 1.04253 8.73606 1.11341 8.62043C1.18429 8.51766 1.26935 8.42773 1.36859 8.37634C1.482 8.32495 1.59541 8.29926 1.70882 8.29926H6.72727C6.85485 8.29926 6.98244 8.3378 7.09585 8.40203C7.20926 8.46627 7.3085 8.56905 7.36521 8.69752L17.7707 29.3043C17.8416 29.4071 17.8699 29.5099 17.8699 29.6255Z" fill="#987900" stroke="#987900"/>
<path d="M52.9825 8.93876L41.049 35.066C40.9917 35.1942 40.8913 35.2968 40.7765 35.3737C40.6618 35.4506 40.5327 35.4891 40.4036 35.4891C40.2745 35.4891 40.1454 35.4634 40.0163 35.3993C39.9016 35.3352 39.8012 35.2327 39.7295 35.1173L37.0473 30.3867C37.0043 30.2841 36.9756 30.1816 36.9756 30.0662C36.9756 29.9508 37.0043 29.8482 37.0473 29.7457L46.5855 8.5798C46.6428 8.4516 46.7289 8.34904 46.8437 8.27211C46.9584 8.19519 47.0875 8.15673 47.2166 8.15673L52.251 7.93879C52.3658 7.92597 52.4948 7.93879 52.6096 8.00289C52.7243 8.05417 52.8104 8.13109 52.8821 8.23365C52.9538 8.33621 52.9968 8.4516 53.0112 8.5798C53.0542 8.69518 53.0255 8.82338 52.9825 8.93876Z" fill="#987900" stroke="#987900"/>
</svg>
