<?xml version="1.0" encoding="utf-8"?>
<!-- Generator: Adobe Illustrator 24.0.0, SVG Export Plug-In . SVG Version: 6.00 Build 0)  -->
<svg version="1.1" id="Calque_1" xmlns="http://www.w3.org/2000/svg" xmlns:xlink="http://www.w3.org/1999/xlink" x="0px" y="0px"
	 viewBox="0 0 369 274" style="enable-background:new 0 0 369 274;" xml:space="preserve">
<style type="text/css">
	.st0{fill:#F9F9F9;stroke:#FFFFFF;stroke-width:4;}
	.st1{fill:#F9F9F9;stroke:#FFFAFA;stroke-width:3;}
	.st2{fill:#F9F9F9;stroke:#FFFFFF;stroke-width:3;}
</style>
<path class="st0" d="M249.6,123.1c-0.8,2.7-1.8,5.4-2.8,7.9c-1.9,4.4-4.1,8.7-6.5,12.7c-7.1,11.1-16.2,20.1-26.8,26.3
	c-1.1,0.6-2,1.4-2.8,2.4c-0.8,1-1.3,2.2-1.7,3.6c-0.3,1.3-0.4,2.7-0.3,4c0.2,1.4,0.5,2.7,1.1,3.8l6.2,11.9l21.7,41.5
	c0.7,1.4,1.1,3.1,1.1,4.7c0,1.7-0.4,3.3-1.1,4.7l-8.2,18.2c-0.8,1.7-2,3.1-3.4,4.1c-1.4,1-3.1,1.5-4.7,1.4h-9.6
	c-1.6,0-3.1-0.4-4.5-1.3c-1.4-0.9-2.6-2.1-3.4-3.7l-66-125.2l-1.6-3h39.1c0.6-0.1,1.3-0.1,1.9,0h4.1c16.4-1.7,38.2-31.2,31.6-56.6
	c-2.5-8.3-6.6-15.7-12.1-21.5c-5.5-5.9-12.2-10.1-19.4-12.2c-0.9-0.2-1.9-0.2-2.8-0.1H68.8c-1.6,0.1-3.3-0.4-4.7-1.4
	c-1.4-1-2.5-2.5-3.3-4.2c-0.7-1.7-1-3.7-0.8-5.6c0.2-1.9,0.9-3.7,1.9-5.2L81.5,6.2c0.9-1,1.9-1.9,3-2.5c1.1-0.6,2.3-0.9,3.6-0.9
	c15-0.4,68.1-1.6,89.4,0c24.6,2,39.8,12.1,56.6,29.1C250.9,48.9,259.9,89.9,249.6,123.1z"/>
<path class="st1" d="M121,226.4c0,0.9-0.2,1.7-0.5,2.5l-17.1,37.5c-0.5,0.9-1.2,1.6-2,2.1c-0.8,0.5-1.7,0.7-2.6,0.7
	c-0.9,0-1.8-0.3-2.6-0.7c-0.8-0.5-1.5-1.2-2-2.1L2.5,68.5C2.2,67.7,2,66.7,2,65.7c0-1,0.3-1.9,0.8-2.8c0.5-0.8,1.1-1.5,1.8-1.9
	c0.8-0.4,1.6-0.6,2.4-0.6h35.4c0.9,0,1.8,0.3,2.6,0.8c0.8,0.5,1.5,1.3,1.9,2.3l73.4,160.4C120.8,224.7,121,225.5,121,226.4z"/>
<path class="st2" d="M366.6,64.6l-83.2,203.8c-0.4,1-1.1,1.8-1.9,2.4c-0.8,0.6-1.7,0.9-2.6,0.9c-0.9,0-1.8-0.2-2.7-0.7
	c-0.8-0.5-1.5-1.3-2-2.2l-18.7-36.9c-0.3-0.8-0.5-1.6-0.5-2.5c0-0.9,0.2-1.7,0.5-2.5l66.5-165.1c0.4-1,1-1.8,1.8-2.4
	c0.8-0.6,1.7-0.9,2.6-0.9l35.1-1.7c0.8-0.1,1.7,0,2.5,0.5c0.8,0.4,1.4,1,1.9,1.8s0.8,1.7,0.9,2.7C367.1,62.7,366.9,63.7,366.6,64.6z
	"/>
</svg>
