<svg width="369" height="274" viewBox="0 0 369 274" stroke="url(#rainbow)" xmlns="http://www.w3.org/2000/svg">
<path d="M249.603 123.116C248.802 125.833 247.85 128.486 246.753 131.056C244.859 135.473 242.673 139.708 240.215 143.722C233.157 154.804 223.991 163.793 213.447 169.972C212.393 170.549 211.455 171.38 210.693 172.411C209.93 173.442 209.362 174.651 209.025 175.957C208.687 177.264 208.588 178.639 208.734 179.994C208.88 181.349 209.267 182.652 209.871 183.819L216.074 195.763L237.756 237.304C238.468 238.738 238.843 240.368 238.843 242.029C238.843 243.689 238.468 245.319 237.756 246.754L229.597 264.932C228.793 266.636 227.609 268.05 226.171 269.022C224.733 269.993 223.097 270.485 221.438 270.444H211.827C210.253 270.466 208.7 270.02 207.313 269.148C205.926 268.276 204.749 267.006 203.891 265.457L137.895 140.244L136.33 137.225H175.447C176.079 137.157 176.715 137.157 177.347 137.225H181.483C197.856 135.519 219.65 106.053 213.056 80.5907C210.603 72.3426 206.435 64.9438 200.932 59.0651C195.428 53.1864 188.762 49.0136 181.538 46.9249C180.617 46.7233 179.676 46.6791 178.744 46.7937H68.8242C67.1779 46.8689 65.5485 46.3802 64.1346 45.3872C62.7206 44.3942 61.583 42.9397 60.8605 41.2009C60.1379 39.4621 59.8616 37.5141 60.0651 35.5941C60.2685 33.6741 60.9431 31.8651 62.0066 30.3874L81.5094 6.17169C82.3658 5.12991 83.3895 4.29776 84.5213 3.7233C85.6531 3.14883 86.8706 2.84345 88.1035 2.8248C103.08 2.43105 156.224 1.18417 177.515 2.8248C202.159 4.85918 217.303 14.8998 234.124 31.8968C250.944 48.8937 259.941 89.9094 249.603 123.116Z" fill="url(#paint0_linear)" stroke="url(#rainbow)" stroke-width="4"/>
<path d="M103.313 266.407L120.454 228.86C120.812 228.098 121 227.243 121 226.374C121 225.505 120.812 224.651 120.454 223.889L47.0145 63.4984C46.5679 62.5538 45.9097 61.7688 45.1105 61.2273C44.3113 60.6858 43.401 60.4081 42.4771 60.424H7.07356C6.23105 60.3594 5.38897 60.5576 4.63364 60.9982C3.87832 61.4388 3.2369 62.106 2.77515 62.9314C2.3134 63.7568 2.04791 64.7107 2.0059 65.6954C1.96389 66.6801 2.14688 67.6602 2.53609 68.5351L94.1259 266.407C94.6421 267.27 95.3293 267.976 96.129 268.463C96.9288 268.95 97.8174 269.204 98.7193 269.204C99.6213 269.204 100.51 268.95 101.31 268.463C102.109 267.976 102.797 267.27 103.313 266.407Z" stroke="url(#rainbow)" stroke-width="3"/>
<path d="M274.25 268.772L255.545 231.881C255.188 231.114 255 230.253 255 229.378C255 228.503 255.188 227.642 255.545 226.875L322.075 61.7887C322.487 60.7981 323.123 59.9604 323.913 59.3677C324.704 58.7749 325.618 58.4501 326.555 58.429L361.668 56.7162C362.507 56.6097 363.355 56.7646 364.127 57.1651C364.899 57.5657 365.569 58.198 366.068 58.9986C366.567 59.7992 366.878 60.7401 366.971 61.7269C367.064 62.7138 366.934 63.7119 366.596 64.6213L283.378 268.377C282.947 269.342 282.307 270.156 281.523 270.737C280.738 271.318 279.837 271.645 278.911 271.685C277.985 271.725 277.066 271.477 276.248 270.965C275.429 270.454 274.74 269.697 274.25 268.772V268.772Z" stroke="url(#rainbow)" stroke-width="3"/>


<defs>
    <linearGradient id="rainbow" x1="0" x2="0" y1="0" y2="100%" gradientUnits="userSpaceOnUse" >
      <stop stop-color="#FF5B99" offset="0%"/>
      <stop stop-color="#FF5447" offset="20%"/>
      <stop stop-color="#FF7B21" offset="40%"/>
      <stop stop-color="#EAFC37" offset="60%"/>
      <stop stop-color="#4FCB6B" offset="80%"/>
      <stop stop-color="#51F7FE" offset="100%"/> 
    </linearGradient>
  </defs>
<defs>
<linearGradient id="paint0_linear" x1="157" y1="2" x2="157" y2="270.447" gradientUnits="userSpaceOnUse">
<stop offset="0.130208" stop-color="#483A14"/>
<stop offset="0.442708" stop-color="#4C1A14"/>
<stop offset="0.614583" stop-color="#41144B"/>
<stop offset="1" stop-color="#4D1B14" stop-opacity="0"/>
</linearGradient>
</defs>
</svg>
