<?xml version="1.0" encoding="utf-8"?>
<!-- Generator: Adobe Illustrator 24.0.0, SVG Export Plug-In . SVG Version: 6.00 Build 0)  -->
<svg version="1.1" id="Calque_1" xmlns="http://www.w3.org/2000/svg" xmlns:xlink="http://www.w3.org/1999/xlink" x="0px" y="0px"
	 viewBox="0 0 203 153" style="enable-background:new 0 0 203 153;" xml:space="preserve">
<style type="text/css">
	.st0{fill:#0A0101;stroke:#FFFFFF;stroke-width:4;}
	.st1{fill:#987900;stroke:#987900;stroke-width:3;}
</style>
<g>
	<path class="st0" d="M135.6,65.2c-0.4,1.4-0.9,2.8-1.5,4.1c-1,2.3-2.1,4.5-3.4,6.6c-3.7,5.8-8.5,10.5-14,13.7
		c-0.6,0.3-1,0.7-1.5,1.3c-0.4,0.5-0.7,1.1-0.9,1.9c-0.2,0.7-0.2,1.4-0.2,2.1c0.1,0.7,0.3,1.4,0.6,2l3.2,6.2l11.3,21.6
		c0.4,0.7,0.6,1.6,0.6,2.5c0,0.9-0.2,1.7-0.6,2.5l-4.3,9.5c-0.4,0.9-1,1.6-1.8,2.1c-0.7,0.5-1.6,0.8-2.5,0.7h-5
		c-0.8,0-1.6-0.2-2.3-0.7c-0.7-0.5-1.4-1.1-1.8-1.9L77.3,74l-0.8-1.6h20.4c0.3-0.1,0.7-0.1,1,0h2.1c8.6-0.9,20-16.3,16.5-29.5
		c-1.3-4.3-3.4-8.2-6.3-11.2c-2.9-3.1-6.4-5.3-10.1-6.4c-0.5-0.1-1-0.1-1.5-0.1H41.2c-0.8,0.1-1.7-0.2-2.5-0.7
		c-0.7-0.5-1.3-1.3-1.7-2.2c-0.4-0.9-0.5-1.9-0.4-2.9c0.1-1,0.5-1.9,1-2.7L47.8,4.2c0.5-0.5,1-1,1.6-1.3c0.6-0.3,1.2-0.5,1.9-0.5
		c7.8-0.2,35.6-0.8,46.7,0c12.9,1,20.8,6.3,29.6,15.2C136.3,26.5,141,47.9,135.6,65.2z"/>
	<path class="st1" d="M67.9,118.8c0,0.5-0.1,0.9-0.3,1.3l-8.9,19.7c-0.3,0.5-0.6,0.8-1,1.1c-0.4,0.3-0.9,0.4-1.4,0.4
		s-0.9-0.2-1.4-0.4c-0.4-0.3-0.8-0.6-1-1.1L6.3,36C6.1,35.6,6,35.1,6,34.6c0-0.5,0.2-1,0.4-1.5c0.3-0.4,0.6-0.8,0.9-1
		c0.4-0.2,0.8-0.3,1.2-0.3H27c0.5,0,0.9,0.2,1.4,0.4c0.4,0.3,0.8,0.7,1,1.2l38.2,84.1C67.8,117.9,67.9,118.3,67.9,118.8z"/>
	<path class="st1" d="M196.6,34.4L152.8,141c-0.2,0.5-0.6,0.9-1,1.3c-0.4,0.3-0.9,0.5-1.4,0.5c-0.5,0-0.9-0.1-1.4-0.4
		c-0.4-0.3-0.8-0.7-1.1-1.2l-9.8-19.3c-0.2-0.4-0.3-0.8-0.3-1.3c0-0.5,0.1-0.9,0.3-1.3l35-86.4c0.2-0.5,0.5-0.9,0.9-1.3
		c0.4-0.3,0.9-0.5,1.4-0.5l18.5-0.9c0.4-0.1,0.9,0,1.3,0.3c0.4,0.2,0.7,0.5,1,0.9c0.3,0.4,0.4,0.9,0.5,1.4
		C196.9,33.4,196.8,33.9,196.6,34.4z"/>
</g>
</svg>
