<svg width="275" height="204" viewBox="0 0 275 204" fill="none" xmlns="http://www.w3.org/2000/svg">
<path d="M181.795 119.016C181.377 120.425 180.854 121.833 180.332 123.137C179.34 125.433 178.19 127.676 176.937 129.762C173.228 135.553 168.475 140.248 162.937 143.482C162.363 143.795 161.893 144.212 161.475 144.734C161.057 145.255 160.796 145.881 160.587 146.612C160.43 147.29 160.378 148.02 160.43 148.698C160.535 149.429 160.691 150.107 161.005 150.681L164.243 156.888L175.579 178.537C175.944 179.267 176.153 180.154 176.153 180.989C176.153 181.876 175.944 182.71 175.579 183.44L171.295 192.935C170.877 193.821 170.251 194.552 169.519 195.073C168.788 195.595 167.9 195.856 167.064 195.804H162.049C161.214 195.804 160.43 195.595 159.699 195.126C158.968 194.656 158.341 194.03 157.923 193.195L123.447 127.884L122.611 126.319H143.036C143.349 126.267 143.715 126.267 144.028 126.319H146.17C154.736 125.433 166.124 110.044 162.676 96.7937C161.37 92.464 159.229 88.6038 156.356 85.5782C153.483 82.5004 149.983 80.3095 146.222 79.214C145.752 79.1097 145.23 79.1097 144.759 79.1618H87.3521C86.5163 79.214 85.6283 78.9532 84.897 78.4315C84.1657 77.9099 83.5911 77.1274 83.1732 76.2406C82.8076 75.3538 82.6509 74.3105 82.7553 73.3193C82.8598 72.3282 83.2255 71.3892 83.7478 70.6067L93.9861 58.0349C94.4562 57.5132 94.9786 57.0437 95.5531 56.7307C96.1277 56.4177 96.7546 56.2612 97.4336 56.2612C105.269 56.0526 133.006 55.4266 144.133 56.2612C156.983 57.3045 164.922 62.5732 173.698 71.4414C182.474 80.3095 187.175 101.697 181.795 119.016Z" stroke="white" stroke-width="4"/>
<path d="M114.024 172.631C114.024 173.103 113.92 173.523 113.764 173.942L104.876 193.598C104.616 194.07 104.252 194.437 103.836 194.699C103.42 194.961 102.953 195.066 102.485 195.066C102.017 195.066 101.549 194.908 101.133 194.699C100.717 194.437 100.354 194.07 100.094 193.598L52.4279 89.8662C52.272 89.4468 52.168 88.9227 52.168 88.3985C52.168 87.8743 52.324 87.4026 52.5839 86.9308C52.8438 86.5115 53.1556 86.1446 53.5195 85.9349C53.9353 85.7253 54.3512 85.6204 54.767 85.6204H73.168C73.6358 85.6204 74.1036 85.7777 74.5195 86.0398C74.9353 86.3018 75.2992 86.7212 75.5071 87.2453L113.661 171.321C113.92 171.74 114.024 172.16 114.024 172.631Z" stroke="#987900" stroke-width="3"/>
<path d="M242.771 88.2295L199.015 194.829C198.804 195.352 198.436 195.77 198.015 196.084C197.595 196.398 197.121 196.555 196.648 196.555C196.175 196.555 195.701 196.45 195.228 196.189C194.807 195.927 194.439 195.509 194.176 195.038L184.342 175.737C184.184 175.319 184.079 174.9 184.079 174.429C184.079 173.959 184.184 173.54 184.342 173.122L219.315 86.7649C219.525 86.2418 219.841 85.8234 220.262 85.5096C220.682 85.1957 221.156 85.0388 221.629 85.0388L240.089 84.1496C240.509 84.0973 240.983 84.1496 241.403 84.4111C241.824 84.6204 242.14 84.9342 242.403 85.3526C242.666 85.7711 242.823 86.2418 242.876 86.7649C243.034 87.2356 242.928 87.7587 242.771 88.2295Z" stroke="#987900" stroke-width="3"/>
</svg>
