<?xml version="1.0" standalone="no"?><svg xmlns="http://www.w3.org/2000/svg" viewBox="0 0 1440 320"><path fill="#273036" fill-opacity="1" d="M0,160L15,138.7C30,117,60,75,90,53.3C120,32,150,32,180,80C210,128,240,224,270,224C300,224,330,128,360,101.3C390,75,420,117,450,165.3C480,213,510,267,540,282.7C570,299,600,277,630,234.7C660,192,690,128,720,101.3C750,75,780,85,810,128C840,171,870,245,900,240C930,235,960,149,990,101.3C1020,53,1050,43,1080,64C1110,85,1140,139,1170,144C1200,149,1230,107,1260,74.7C1290,43,1320,21,1350,48C1380,75,1410,149,1425,186.7L1440,224L1440,320L1425,320C1410,320,1380,320,1350,320C1320,320,1290,320,1260,320C1230,320,1200,320,1170,320C1140,320,1110,320,1080,320C1050,320,1020,320,990,320C960,320,930,320,900,320C870,320,840,320,810,320C780,320,750,320,720,320C690,320,660,320,630,320C600,320,570,320,540,320C510,320,480,320,450,320C420,320,390,320,360,320C330,320,300,320,270,320C240,320,210,320,180,320C150,320,120,320,90,320C60,320,30,320,15,320L0,320Z"></path></svg>