<svg width="68" height="68" viewBox="0 0 68 68" fill="none" xmlns="http://www.w3.org/2000/svg">
<g clip-path="url(#clip0)">
<path d="M20.9553 37.1361L22.887 39.4315C21.3651 40.7123 20.4144 42.5452 20.2439 44.527C20.0735 46.5088 20.6972 48.4772 21.9781 49.999C23.2589 51.5209 25.0918 52.4717 27.0736 52.6422C29.0554 52.8126 31.0237 52.1888 32.5456 50.908L34.4773 53.2033C32.3467 54.9965 29.591 55.8698 26.8165 55.6311C24.042 55.3925 21.4759 54.0614 19.6827 51.9308C17.8896 49.8001 17.0163 47.0444 17.255 44.2699C17.4936 41.4954 18.8247 38.9293 20.9553 37.1361Z" fill="white"/>
<path d="M24.1596 24.637C24.6607 25.2281 25.3088 25.6767 26.0385 25.9377C25.8081 26.6601 25.7641 27.429 25.9104 28.173C26.0567 28.9171 26.3886 29.612 26.8754 30.1934C27.3765 30.7846 28.0246 31.2332 28.7543 31.4942C28.4487 32.4646 28.481 33.51 28.8459 34.4598C29.2108 35.4095 29.8868 36.2076 30.7636 36.7237L24.8188 41.7269C23.9056 42.4954 23.3352 43.5951 23.2329 44.7842C23.1306 45.9733 23.5049 47.1543 24.2734 48.0674C25.0419 48.9806 26.1416 49.551 27.3307 49.6533C28.5198 49.7556 29.7008 49.3813 30.6139 48.6128L43.3529 37.8918L43.7623 41.9192C43.8192 42.8736 44.1857 43.7834 44.8063 44.5107C45.3793 45.195 46.1429 45.6934 46.9999 45.9427C47.8569 46.1919 48.7687 46.1806 49.6193 45.9103C50.4699 45.6399 51.2209 45.1228 51.7769 44.4245C52.3328 43.7262 52.6685 42.8784 52.7414 41.9889L53.3924 25.7569C53.4618 23.4779 52.6863 21.2537 51.2148 19.5121L46.3855 13.7738C44.5924 11.6432 42.0263 10.3121 39.2518 10.0735C36.4773 9.83482 33.7216 10.7081 31.5909 12.5013L24.705 18.2964C23.7919 19.0649 23.2214 20.1646 23.1191 21.3537C23.0169 22.5428 23.3911 23.7238 24.1596 24.637V24.637ZM33.5227 14.7966C35.0445 13.5158 37.0129 12.892 38.9947 13.0624C40.9765 13.2329 42.8094 14.1837 44.0902 15.7055L48.9195 21.4438C49.9098 22.5921 50.4493 24.061 50.4377 25.5772L49.7383 41.7519C49.703 42.1438 49.5151 42.5061 49.2151 42.7608C49.002 42.9402 48.7431 43.0566 48.4675 43.0972C48.1919 43.1377 47.9104 43.1007 47.6547 42.9903C47.3989 42.8799 47.179 42.7004 47.0195 42.472C46.86 42.2436 46.7672 41.9754 46.7516 41.6972L45.7823 31.9262L28.6822 46.3175C28.3778 46.5737 27.9841 46.6984 27.5878 46.6643C27.1914 46.6302 26.8248 46.4401 26.5687 46.1357C26.3125 45.8313 26.1878 45.4377 26.2219 45.0413C26.2559 44.6449 26.4461 44.2784 26.7505 44.0222L39.3747 33.3977L37.443 31.1024L34 34C33.6956 34.2562 33.302 34.3809 32.9056 34.3468C32.5092 34.3127 32.1427 34.1226 31.8865 33.8182C31.6303 33.5138 31.5056 33.1202 31.5397 32.7238C31.5738 32.3274 31.7639 31.9609 32.0683 31.7047L35.5113 28.8071L33.5795 26.5118L31.2842 28.4435C30.9798 28.6997 30.5862 28.8244 30.1898 28.7903C29.7935 28.7563 29.4269 28.5661 29.1707 28.2617C28.9145 27.9573 28.7898 27.5637 28.8239 27.1673C28.858 26.771 29.0481 26.4044 29.3525 26.1482L31.6478 24.2165L29.7161 21.9212L28.5684 22.887C28.2641 23.1432 27.8704 23.268 27.474 23.2339C27.0777 23.1998 26.7111 23.0096 26.4549 22.7052C26.1988 22.4009 26.074 22.0072 26.1081 21.6108C26.1422 21.2145 26.3323 20.8479 26.6367 20.5917L33.5227 14.7966Z" fill="white"/>
</g>
<defs>
<clipPath id="clip0">
<rect width="48" height="48" fill="white" transform="translate(31.0912 67.8162) rotate(-130.084)"/>
</clipPath>
</defs>
</svg>
