<?xml version="1.0" standalone="no"?>
<svg xmlns="http://www.w3.org/2000/svg" viewBox="0 0 1440 320"><path fill="url(#rainbow)" fill-opacity="1" d="M0,256L18.5,234.7C36.9,213,74,171,111,170.7C147.7,171,185,213,222,229.3C258.5,245,295,235,332,202.7C369.2,171,406,117,443,122.7C480,128,517,192,554,202.7C590.8,213,628,171,665,138.7C701.5,107,738,85,775,85.3C812.3,85,849,107,886,133.3C923.1,160,960,192,997,224C1033.8,256,1071,288,1108,293.3C1144.6,299,1182,277,1218,234.7C1255.4,192,1292,128,1329,112C1366.2,96,1403,128,1422,144L1440,160L1440,0L1421.5,0C1403.1,0,1366,0,1329,0C1292.3,0,1255,0,1218,0C1181.5,0,1145,0,1108,0C1070.8,0,1034,0,997,0C960,0,923,0,886,0C849.2,0,812,0,775,0C738.5,0,702,0,665,0C627.7,0,591,0,554,0C516.9,0,480,0,443,0C406.2,0,369,0,332,0C295.4,0,258,0,222,0C184.6,0,148,0,111,0C73.8,0,37,0,18,0L0,0Z"></path>

  </defs>
</svg>