<?xml version="1.0" encoding="utf-8"?>
<!-- Generator: Adobe Illustrator 24.0.0, SVG Export Plug-In . SVG Version: 6.00 Build 0)  -->
<svg version="1.1" id="Calque_1" xmlns="http://www.w3.org/2000/svg" xmlns:xlink="http://www.w3.org/1999/xlink" x="0px" y="0px"
	 viewBox="0 0 1440 320" style="enable-background:new 0 0 1440 320;" xml:space="preserve">
<style type="text/css">
	.st0{fill:black;}
</style>
<path class="st0" d="M1440,0l-18,0c-19,0-55.8,0-93,0c-37,0-73.6,0-111,0c-36,0-73.4,0-110,0c-37,0-74.2,0-111,0c-37,0-73.9,0-111,0
	c-37,0-73.7,0-111,0c-37,0-73.5,0-110,0c-37,0-74.2,0-111,0c-37,0-74,0-111,0c-37,0-73.8,0-111,0c-37,0-73.5,0-110,0
	c-37,0-74.3,0-111,0C74,0,36.9,0,18.5,0L0,0l0,160l18-16c19-16,55.8-48,93-32c37,16,73.6,80,111,122.7c36,42.3,73.4,64.3,110,58.6
	c37-5.3,74.2-37.3,111-69.3c37-32,73.9-64,111-90.7c37-26.3,73.7-48.3,111-48c37-0.3,73.5,21.7,110,53.4c37,32.3,74.2,74.3,111,64
	c37-10.7,74-74.7,111-80c37-5.7,73.8,48.3,111,80c37,32.3,73.5,42.3,110,26.6c37-16.3,74.3-58.3,111-58.6c37,0.3,74.1,42.3,92.5,64
	L1440,256V0z"/>
</svg>
